<mxfile host="app.diagrams.net" modified="2020-09-29T13:58:37.576Z" agent="5.0 (Windows NT 10.0; Win64; x64) AppleWebKit/537.36 (KHTML, like Gecko) Chrome/85.0.4183.121 Safari/537.36 Edg/85.0.564.63" etag="aSaMzyHV2x_0LDZ4c3gi" version="13.7.6" type="github">
  <diagram id="hX-XF3ck8XFB4VlFPqp9" name="Page-1">
    <mxGraphModel dx="965" dy="614" grid="1" gridSize="10" guides="1" tooltips="1" connect="1" arrows="1" fold="1" page="1" pageScale="1" pageWidth="827" pageHeight="1169" math="0" shadow="0">
      <root>
        <mxCell id="0" />
        <mxCell id="1" parent="0" />
        <mxCell id="cmkQfpcR1fKDDS3a6NK1-7" value="&lt;font&gt;&lt;span style=&quot;font-family: &amp;#34;helvetica&amp;#34; ; text-align: left&quot;&gt;&lt;font style=&quot;font-size: 29px&quot;&gt;钙钛矿结构优化，晶格常数、带隙的计算&lt;/font&gt;&lt;/span&gt;&lt;br&gt;&lt;/font&gt;" style="whiteSpace=wrap;html=1;align=center;gradientColor=#7ea6e0;fillColor=#dae8fc;strokeColor=#6c8ebf;" parent="1" vertex="1">
          <mxGeometry x="290" y="130" width="543" height="60" as="geometry" />
        </mxCell>
        <mxCell id="cmkQfpcR1fKDDS3a6NK1-5" style="edgeStyle=orthogonalEdgeStyle;orthogonalLoop=1;jettySize=auto;html=1;exitX=1;exitY=0.5;exitDx=0;exitDy=0;strokeWidth=5;fillColor=#dae8fc;strokeColor=#6c8ebf;gradientColor=#7ea6e0;" parent="1" source="cmkQfpcR1fKDDS3a6NK1-3" edge="1">
          <mxGeometry relative="1" as="geometry">
            <mxPoint x="290" y="161" as="targetPoint" />
            <Array as="points">
              <mxPoint x="240" y="161" />
              <mxPoint x="240" y="161" />
            </Array>
          </mxGeometry>
        </mxCell>
        <mxCell id="cmkQfpcR1fKDDS3a6NK1-3" value="&lt;font style=&quot;font-size: 29px&quot;&gt;方法检验&lt;/font&gt;" style="whiteSpace=wrap;html=1;align=center;fillColor=#dae8fc;strokeColor=#6c8ebf;gradientColor=#7ea6e0;" parent="1" vertex="1">
          <mxGeometry x="40" y="136" width="160" height="50" as="geometry" />
        </mxCell>
        <mxCell id="cmkQfpcR1fKDDS3a6NK1-9" value="&lt;p style=&quot;margin-top: 0pt ; margin-bottom: 0pt ; margin-left: 0in ; text-align: left ; direction: ltr ; unicode-bidi: embed ; word-break: normal&quot;&gt;&lt;font style=&quot;font-size: 29px&quot;&gt;构建模型&lt;/font&gt;&lt;/p&gt;" style="whiteSpace=wrap;html=1;align=center;fillColor=#dae8fc;strokeColor=#6c8ebf;gradientColor=#7ea6e0;" parent="1" vertex="1">
          <mxGeometry x="40" y="245" width="160" height="50" as="geometry" />
        </mxCell>
        <mxCell id="cmkQfpcR1fKDDS3a6NK1-12" style="edgeStyle=orthogonalEdgeStyle;orthogonalLoop=1;jettySize=auto;html=1;exitX=1;exitY=0.5;exitDx=0;exitDy=0;strokeWidth=5;fillColor=#dae8fc;strokeColor=#6c8ebf;gradientColor=#7ea6e0;" parent="1" edge="1">
          <mxGeometry relative="1" as="geometry">
            <mxPoint x="290" y="269.29" as="targetPoint" />
            <mxPoint x="200" y="269.29" as="sourcePoint" />
            <Array as="points">
              <mxPoint x="250" y="269.29" />
              <mxPoint x="250" y="269.29" />
            </Array>
          </mxGeometry>
        </mxCell>
        <mxCell id="cmkQfpcR1fKDDS3a6NK1-13" value="&lt;div style=&quot;font-size: 28px&quot;&gt;&lt;font style=&quot;font-size: 28px&quot;&gt;&lt;span&gt;有机&lt;/span&gt;分子几何构型优化&lt;/font&gt;&lt;/div&gt;&lt;font style=&quot;font-size: 28px&quot;&gt;&lt;div&gt;&lt;span&gt;界面模型&lt;/span&gt;&lt;span&gt;优化&lt;/span&gt;&lt;/div&gt;&lt;/font&gt;&lt;p style=&quot;margin-top: 0pt ; margin-bottom: 0pt ; margin-left: 0in ; direction: ltr ; unicode-bidi: embed ; word-break: normal ; font-size: 28px&quot;&gt;&lt;font style=&quot;font-size: 28px&quot;&gt;&lt;span style=&quot;color: black&quot;&gt;有机分子吸附表面优化（吸附配置&lt;/span&gt;&lt;span style=&quot;color: black&quot;&gt;）&lt;/span&gt;&lt;/font&gt;&lt;/p&gt;" style="shape=ext;double=1;whiteSpace=wrap;html=1;align=left;gradientColor=#7ea6e0;strokeColor=#6c8ebf;" parent="1" vertex="1">
          <mxGeometry x="290" y="210" width="473" height="120" as="geometry" />
        </mxCell>
        <mxCell id="cmkQfpcR1fKDDS3a6NK1-18" value="&lt;p style=&quot;margin-top: 0pt ; margin-bottom: 0pt ; margin-left: 0in ; text-align: left ; direction: ltr ; unicode-bidi: embed ; word-break: normal ; font-size: 29px&quot;&gt;&lt;span style=&quot;font-family: &amp;#34;arial&amp;#34;&quot;&gt;VASP&lt;/span&gt;&lt;span&gt;计算&lt;/span&gt;&lt;/p&gt;" style="whiteSpace=wrap;html=1;align=center;fillColor=#dae8fc;strokeColor=#6c8ebf;gradientColor=#7ea6e0;" parent="1" vertex="1">
          <mxGeometry x="40" y="370" width="160" height="50" as="geometry" />
        </mxCell>
        <mxCell id="cmkQfpcR1fKDDS3a6NK1-22" style="edgeStyle=orthogonalEdgeStyle;orthogonalLoop=1;jettySize=auto;html=1;exitX=1;exitY=0.5;exitDx=0;exitDy=0;strokeWidth=5;fillColor=#dae8fc;strokeColor=#6c8ebf;gradientColor=#7ea6e0;" parent="1" edge="1">
          <mxGeometry relative="1" as="geometry">
            <mxPoint x="290" y="399.99999999999994" as="targetPoint" />
            <mxPoint x="200" y="399.99999999999994" as="sourcePoint" />
            <Array as="points">
              <mxPoint x="250" y="400" />
              <mxPoint x="250" y="400" />
            </Array>
          </mxGeometry>
        </mxCell>
        <mxCell id="cmkQfpcR1fKDDS3a6NK1-23" value="&lt;font style=&quot;font-size: 28px&quot;&gt;&lt;p style=&quot;margin-top: 0pt ; margin-bottom: 0pt ; margin-left: 0in ; direction: ltr ; unicode-bidi: embed ; word-break: normal&quot;&gt;吸附能计算：&lt;span style=&quot;font-family: &amp;#34;arial&amp;#34;&quot;&gt;&lt;i&gt;E&lt;/i&gt;&lt;sub&gt;&lt;i&gt;a&lt;/i&gt;&lt;/sub&gt;&lt;/span&gt;&lt;span style=&quot;font-family: &amp;#34;arial&amp;#34;&quot;&gt; = &lt;/span&gt;&lt;span style=&quot;font-family: &amp;#34;arial&amp;#34;&quot;&gt;&lt;i&gt;E&lt;/i&gt;&lt;/span&gt;&lt;sub&gt;&lt;i&gt;&lt;span style=&quot;font-family: &amp;#34;arial&amp;#34;&quot;&gt;organic+&lt;/span&gt;&lt;span style=&quot;font-family: &amp;#34;arial&amp;#34;&quot;&gt;slab&lt;/span&gt;&lt;/i&gt;&lt;/sub&gt;&lt;span style=&quot;font-family: &amp;#34;arial&amp;#34;&quot;&gt; – &lt;/span&gt;&lt;span style=&quot;font-family: &amp;#34;arial&amp;#34;&quot;&gt;&lt;i&gt;E&lt;/i&gt;&lt;sub&gt;&lt;i&gt;organic&lt;/i&gt;&lt;/sub&gt;&lt;/span&gt;&lt;span style=&quot;font-family: &amp;#34;arial&amp;#34;&quot;&gt; – &lt;/span&gt;&lt;span style=&quot;font-family: &amp;#34;arial&amp;#34;&quot;&gt;&lt;i&gt;E&lt;/i&gt;&lt;sub&gt;&lt;i&gt;slab&lt;/i&gt;&lt;/sub&gt;&lt;/span&gt;&lt;/p&gt;&lt;p style=&quot;margin-top: 0pt ; margin-bottom: 0pt ; margin-left: 0in ; direction: ltr ; unicode-bidi: embed ; word-break: normal&quot;&gt;&lt;span style=&quot;font-family: &amp;#34;arial&amp;#34;&quot;&gt;空位形成能计算&lt;/span&gt;&lt;/p&gt;&lt;/font&gt;" style="whiteSpace=wrap;html=1;align=left;gradientColor=#7ea6e0;fillColor=#dae8fc;strokeColor=#6c8ebf;" parent="1" vertex="1">
          <mxGeometry x="290" y="350" width="623" height="90" as="geometry" />
        </mxCell>
        <mxCell id="cmkQfpcR1fKDDS3a6NK1-24" value="&lt;font style=&quot;font-size: 28px&quot;&gt;&lt;p style=&quot;margin-top: 0pt ; margin-bottom: 0pt ; margin-left: 0in ; direction: ltr ; unicode-bidi: embed ; word-break: normal&quot;&gt;&lt;span&gt;态密度&lt;/span&gt;&lt;span&gt;计算&lt;/span&gt;&lt;/p&gt;&lt;p style=&quot;margin-top: 0pt ; margin-bottom: 0pt ; margin-left: 0in ; direction: ltr ; unicode-bidi: embed ; word-break: normal&quot;&gt;&lt;span&gt;分子轨道分布计算&lt;/span&gt;&lt;span&gt;（&lt;/span&gt;&lt;span style=&quot;font-family: &amp;#34;arial&amp;#34;&quot;&gt;LUMO&lt;/span&gt;&lt;span&gt;，&lt;/span&gt;&lt;span style=&quot;font-family: &amp;#34;arial&amp;#34;&quot;&gt;HOMO&lt;/span&gt;&lt;span&gt;）&lt;/span&gt;&lt;/p&gt;&lt;p style=&quot;margin-top: 0pt ; margin-bottom: 0pt ; margin-left: 0in ; direction: ltr ; unicode-bidi: embed ; word-break: normal&quot;&gt;&lt;span style=&quot;font-family: &amp;#34;arial&amp;#34;&quot;&gt;Bader&lt;/span&gt;&lt;span&gt;电荷&lt;/span&gt;&lt;span&gt;计算&lt;/span&gt;&lt;/p&gt;&lt;p style=&quot;margin-top: 0pt ; margin-bottom: 0pt ; margin-left: 0in ; direction: ltr ; unicode-bidi: embed ; word-break: normal&quot;&gt;功函数计算：&lt;span style=&quot;font-family: &amp;#34;arial&amp;#34;&quot;&gt;&lt;i&gt;W&lt;/i&gt; = - &lt;/span&gt;&lt;span style=&quot;font-family: &amp;#34;arial&amp;#34;&quot;&gt;e&lt;/span&gt;&lt;span style=&quot;font-family: &amp;#34;arial&amp;#34;&quot;&gt;&lt;i&gt;ϕ&lt;/i&gt;&lt;/span&gt;&lt;span style=&quot;font-family: &amp;#34;arial&amp;#34;&quot;&gt;(&lt;/span&gt;电势&lt;span style=&quot;font-family: &amp;#34;arial&amp;#34;&quot;&gt;)&amp;nbsp;&lt;/span&gt;&lt;span style=&quot;font-family: &amp;#34;arial&amp;#34;&quot;&gt;- &lt;/span&gt;&lt;span style=&quot;font-family: &amp;#34;arial&amp;#34;&quot;&gt;&lt;i&gt;E&lt;/i&gt;&lt;sub&gt;&lt;i&gt;F&lt;/i&gt;&lt;/sub&gt;&lt;/span&gt;&lt;/p&gt;&lt;/font&gt;" style="whiteSpace=wrap;html=1;align=left;gradientColor=#7ea6e0;fillColor=#dae8fc;strokeColor=#6c8ebf;" parent="1" vertex="1">
          <mxGeometry x="290" y="460" width="493" height="150" as="geometry" />
        </mxCell>
        <mxCell id="cmkQfpcR1fKDDS3a6NK1-29" style="edgeStyle=orthogonalEdgeStyle;orthogonalLoop=1;jettySize=auto;html=1;strokeWidth=5;fillColor=#dae8fc;strokeColor=#6c8ebf;gradientColor=#7ea6e0;" parent="1" edge="1">
          <mxGeometry relative="1" as="geometry">
            <mxPoint x="290" y="540" as="targetPoint" />
            <mxPoint x="240" y="400" as="sourcePoint" />
            <Array as="points">
              <mxPoint x="240" y="540" />
            </Array>
          </mxGeometry>
        </mxCell>
        <mxCell id="cmkQfpcR1fKDDS3a6NK1-30" value="" style="shape=flexArrow;endArrow=classic;html=1;strokeWidth=5;exitX=0.5;exitY=1;exitDx=0;exitDy=0;entryX=0.5;entryY=0;entryDx=0;entryDy=0;" parent="1" target="cmkQfpcR1fKDDS3a6NK1-33" edge="1">
          <mxGeometry width="50" height="50" relative="1" as="geometry">
            <mxPoint x="120.28999999999996" y="420" as="sourcePoint" />
            <mxPoint x="119.28999999999996" y="610" as="targetPoint" />
            <Array as="points" />
          </mxGeometry>
        </mxCell>
        <mxCell id="cmkQfpcR1fKDDS3a6NK1-31" value="&lt;p style=&quot;margin-top: 0pt ; margin-bottom: 0pt ; margin-left: 0in ; direction: ltr ; unicode-bidi: embed ; word-break: normal ; font-size: 28px&quot;&gt;&lt;span&gt;能量值&lt;/span&gt;&lt;span&gt;分析&lt;/span&gt;&lt;/p&gt;" style="shape=ext;double=1;rounded=0;whiteSpace=wrap;html=1;align=left;gradientColor=#7ea6e0;fillColor=#dae8fc;strokeColor=#6c8ebf;" parent="1" vertex="1">
          <mxGeometry x="290" y="630" width="160" height="50" as="geometry" />
        </mxCell>
        <mxCell id="cmkQfpcR1fKDDS3a6NK1-32" value="&lt;p style=&quot;margin-top: 0pt ; margin-bottom: 0pt ; margin-left: 0in ; direction: ltr ; unicode-bidi: embed ; word-break: normal&quot;&gt;&lt;span&gt;&lt;font style=&quot;font-size: 28px&quot;&gt;电子结构分析&lt;/font&gt;&lt;/span&gt;&lt;/p&gt;" style="shape=ext;double=1;rounded=0;whiteSpace=wrap;html=1;align=left;gradientColor=#7ea6e0;fillColor=#dae8fc;strokeColor=#6c8ebf;" parent="1" vertex="1">
          <mxGeometry x="290" y="700" width="183" height="50" as="geometry" />
        </mxCell>
        <mxCell id="cmkQfpcR1fKDDS3a6NK1-33" value="&lt;p style=&quot;margin-top: 0pt ; margin-bottom: 0pt ; margin-left: 0in ; text-align: left ; direction: ltr ; unicode-bidi: embed ; word-break: normal&quot;&gt;&lt;span&gt;&lt;font style=&quot;font-size: 29px&quot;&gt;结果分析&lt;/font&gt;&lt;/span&gt;&lt;/p&gt;" style="whiteSpace=wrap;html=1;align=center;fillColor=#dae8fc;strokeColor=#6c8ebf;gradientColor=#7ea6e0;" parent="1" vertex="1">
          <mxGeometry x="40" y="630" width="160" height="50" as="geometry" />
        </mxCell>
        <mxCell id="cmkQfpcR1fKDDS3a6NK1-45" style="edgeStyle=orthogonalEdgeStyle;orthogonalLoop=1;jettySize=auto;html=1;exitX=1;exitY=0.5;exitDx=0;exitDy=0;strokeWidth=5;fillColor=#dae8fc;strokeColor=#6c8ebf;gradientColor=#7ea6e0;" parent="1" edge="1">
          <mxGeometry relative="1" as="geometry">
            <mxPoint x="540" y="654.29" as="targetPoint" />
            <mxPoint x="450" y="654.29" as="sourcePoint" />
            <Array as="points">
              <mxPoint x="500" y="654.29" />
              <mxPoint x="500" y="654.29" />
            </Array>
          </mxGeometry>
        </mxCell>
        <mxCell id="cmkQfpcR1fKDDS3a6NK1-46" value="&lt;p style=&quot;margin-top: 0pt ; margin-bottom: 0pt ; margin-left: 0in ; direction: ltr ; unicode-bidi: embed ; word-break: normal ; font-size: 28px&quot;&gt;钝化稳定性&lt;/p&gt;" style="shape=ext;double=1;rounded=0;whiteSpace=wrap;html=1;align=left;gradientColor=#7ea6e0;fillColor=#dae8fc;strokeColor=#6c8ebf;" parent="1" vertex="1">
          <mxGeometry x="540" y="630" width="160" height="50" as="geometry" />
        </mxCell>
        <mxCell id="cmkQfpcR1fKDDS3a6NK1-47" style="edgeStyle=orthogonalEdgeStyle;orthogonalLoop=1;jettySize=auto;html=1;exitX=1;exitY=0.5;exitDx=0;exitDy=0;strokeWidth=5;fillColor=#dae8fc;strokeColor=#6c8ebf;gradientColor=#7ea6e0;entryX=0;entryY=0.48;entryDx=0;entryDy=0;entryPerimeter=0;" parent="1" target="cmkQfpcR1fKDDS3a6NK1-48" edge="1">
          <mxGeometry relative="1" as="geometry">
            <mxPoint x="530" y="724" as="targetPoint" />
            <mxPoint x="473" y="724.29" as="sourcePoint" />
            <Array as="points" />
          </mxGeometry>
        </mxCell>
        <mxCell id="cmkQfpcR1fKDDS3a6NK1-48" value="&lt;p style=&quot;margin-top: 0pt ; margin-bottom: 0pt ; margin-left: 0in ; direction: ltr ; unicode-bidi: embed ; word-break: normal ; font-size: 28px&quot;&gt;界面电子调控&lt;/p&gt;" style="shape=ext;double=1;rounded=0;whiteSpace=wrap;html=1;align=left;gradientColor=#7ea6e0;fillColor=#dae8fc;strokeColor=#6c8ebf;" parent="1" vertex="1">
          <mxGeometry x="540" y="700" width="190" height="50" as="geometry" />
        </mxCell>
        <mxCell id="cmkQfpcR1fKDDS3a6NK1-49" style="edgeStyle=orthogonalEdgeStyle;orthogonalLoop=1;jettySize=auto;html=1;exitX=1;exitY=0.5;exitDx=0;exitDy=0;strokeWidth=5;fillColor=#dae8fc;strokeColor=#6c8ebf;gradientColor=#7ea6e0;" parent="1" edge="1">
          <mxGeometry relative="1" as="geometry">
            <mxPoint x="290" y="660" as="targetPoint" />
            <mxPoint x="200" y="660" as="sourcePoint" />
            <Array as="points">
              <mxPoint x="250" y="660" />
              <mxPoint x="250" y="660" />
            </Array>
          </mxGeometry>
        </mxCell>
        <mxCell id="cmkQfpcR1fKDDS3a6NK1-50" style="edgeStyle=orthogonalEdgeStyle;orthogonalLoop=1;jettySize=auto;html=1;strokeWidth=5;fillColor=#dae8fc;strokeColor=#6c8ebf;gradientColor=#7ea6e0;" parent="1" edge="1">
          <mxGeometry relative="1" as="geometry">
            <mxPoint x="290" y="730" as="targetPoint" />
            <mxPoint x="240" y="660" as="sourcePoint" />
            <Array as="points">
              <mxPoint x="240" y="730" />
              <mxPoint x="290" y="730" />
            </Array>
          </mxGeometry>
        </mxCell>
        <mxCell id="cmkQfpcR1fKDDS3a6NK1-51" value="" style="shape=flexArrow;endArrow=classic;html=1;strokeWidth=5;exitX=0.5;exitY=1;exitDx=0;exitDy=0;entryX=0.5;entryY=0;entryDx=0;entryDy=0;" parent="1" target="cmkQfpcR1fKDDS3a6NK1-18" edge="1">
          <mxGeometry width="50" height="50" relative="1" as="geometry">
            <mxPoint x="119.57999999999996" y="295" as="sourcePoint" />
            <mxPoint x="119.28999999999999" y="505.0000000000002" as="targetPoint" />
            <Array as="points" />
          </mxGeometry>
        </mxCell>
        <mxCell id="cmkQfpcR1fKDDS3a6NK1-52" value="" style="shape=flexArrow;endArrow=classic;html=1;strokeWidth=5;exitX=0.5;exitY=1;exitDx=0;exitDy=0;" parent="1" edge="1">
          <mxGeometry width="50" height="50" relative="1" as="geometry">
            <mxPoint x="119.57999999999996" y="186" as="sourcePoint" />
            <mxPoint x="119" y="250" as="targetPoint" />
            <Array as="points" />
          </mxGeometry>
        </mxCell>
      </root>
    </mxGraphModel>
  </diagram>
</mxfile>
